<svg xmlns="http://www.w3.org/2000/svg" width="178" height="73" fill="none" viewBox="0 0 178 73">
  <path fill="#fff" fill-rule="evenodd" d="M167.494 40.37a1.337 1.337 0 0 1-.664.96 4.366 4.366 0 0 1-.975.455c-.668.23-1.368.461-2.109.728-.783.268-1.485.535-2.11.729-.781.267-1.522.498-2.226.765a6.557 6.557 0 0 0-1.483.88c-.423.383-.789.82-1.093 1.302a4 4 0 0 0-.512 2.025c0 1.61.391 2.834 1.174 3.599.781.805 2.226 1.186 4.371 1.186 2.187 0 3.672-.42 4.455-1.263.779-.842 1.17-2.026 1.17-3.556l.002-7.81Zm-5.625-16.953c3.83 0 6.641.728 8.438 2.22 1.795 1.457 2.693 3.329 2.693 5.547V50.09c0 .765-.154 1.607-.427 2.526-.275.921-.821 1.76-1.679 2.524-.822.769-1.953 1.419-3.4 1.916-1.443.498-3.319.765-5.621.765-2.303 0-4.181-.267-5.624-.765-1.443-.497-2.578-1.147-3.395-1.916a6.126 6.126 0 0 1-1.68-2.524c-.277-.917-.433-1.758-.433-2.523V47.07c0-1.609.429-3.103 1.289-4.404.86-1.338 2.068-2.256 3.632-2.831.782-.267 1.68-.535 2.692-.878 1.018-.347 1.952-.693 2.893-.996a52.336 52.336 0 0 0 2.459-.885c.423-.17.852-.323 1.287-.457l.704-.344c.275-.154.546-.385.822-.688.276-.313.512-.66.702-1.032.208-.417.316-.875.313-1.34V31.99a3.1 3.1 0 0 0-.277-1.303c-.154-.461-.465-.88-.896-1.263-.429-.384-1.016-.688-1.716-.92-.704-.227-1.639-.345-2.695-.345-2.188 0-3.633.425-4.414 1.302-.663.769-1.052 1.724-1.131 2.793 0 .232-.194.384-.431.384l-4.761.08a.43.43 0 0 1-.431-.426v-1.105c0-1.075.196-2.07.627-3.025.429-.96 1.093-1.761 1.991-2.451.899-.688 2.07-1.261 3.475-1.646 1.367-.46 3.047-.65 4.998-.65h-.004Z" clip-rule="evenodd"/>
  <path fill="#fff" d="M23.599 57.392c-3.626 0-6.864-.668-9.713-2.007-2.85-1.383-5.073-3.28-6.67-5.7-1.554-2.46-2.33-5.245-2.33-8.354V26.825c0-3.109.776-5.871 2.33-8.29 1.599-2.418 3.798-4.296 6.605-5.634 2.807-1.338 6.022-2.008 9.648-2.008 3.626 0 6.842.583 9.648 1.749 2.807 1.123 4.986 2.698 6.54 4.727 1.599 2.03 2.396 4.362 2.396 6.995 0 1.295-.43 2.309-1.295 3.044-.864.734-2.007 1.1-3.432 1.1-.455-.013-.91-.056-1.36-.129.088-.518.13-1.338.13-2.46 0-1.857-.54-3.52-1.619-4.988-1.036-1.467-2.525-2.61-4.468-3.432-1.9-.82-4.08-1.23-6.54-1.23-2.418 0-4.575.453-6.475 1.36-1.9.864-3.39 2.114-4.468 3.756-1.036 1.599-1.554 3.41-1.554 5.44V41.33c0 2.073.518 3.929 1.554 5.57 1.079 1.599 2.57 2.85 4.468 3.756 1.942.907 4.144 1.36 6.605 1.36 2.503 0 4.727-.41 6.67-1.23 1.942-.82 3.453-1.943 4.532-3.368 1.078-1.467 1.619-3.151 1.619-5.051 0-.69-.043-1.512-.13-2.461.429-.07.861-.113 1.295-.13 1.425 0 2.57.411 3.432 1.23.907.82 1.36 1.923 1.36 3.303a10.551 10.551 0 0 1-2.396 6.8c-1.598 1.986-3.82 3.542-6.67 4.663-2.806 1.079-6.044 1.62-9.712 1.62Zm40.25-28.56c-2.418 0-4.426.735-6.022 2.202-1.599 1.425-2.396 3.174-2.396 5.246v16.968c0 1.424-.476 2.483-1.425 3.173-.906.648-2.309.971-4.209.971V28.638c0-3.196 1.813-4.792 5.44-4.792v3.95c-.69.735-1.166 1.383-1.425 1.943l.26.26c2.761-4.103 6.215-6.153 10.36-6.153 1.554 0 2.741.388 3.56 1.165.82.735 1.231 1.64 1.231 2.72 0 .778-.194 1.468-.582 2.073-1.209-.648-2.807-.972-4.792-.972Zm14.82-9.843c-1.208 0-2.222-.389-3.043-1.166-.82-.777-1.23-1.749-1.23-2.914 0-1.166.41-2.115 1.23-2.85.821-.777 1.835-1.166 3.043-1.166 1.166 0 2.16.389 2.979 1.166.821.735 1.23 1.684 1.23 2.85 0 1.165-.409 2.137-1.23 2.914a4.176 4.176 0 0 1-2.979 1.166ZM75.82 27.99c0-1.425.453-2.462 1.36-3.11.95-.69 2.375-1.035 4.273-1.035v29.402c0 1.424-.473 2.483-1.424 3.173-.907.648-2.309.971-4.209.971V27.99Zm16.156.453c0-1.425.43-2.548 1.295-3.368.906-.82 2.266-1.23 4.08-1.23v3.626l-1.296 1.684.194.26c1.338-1.727 2.87-3.087 4.598-4.08 1.726-.992 3.776-1.49 6.151-1.49 3.712 0 6.713 1.036 9.001 3.108 2.287 2.03 3.432 4.75 3.432 8.16V46.19c0 3.41-1.188 6.132-3.561 8.16-2.376 2.03-5.462 3.043-9.26 3.043a12.963 12.963 0 0 1-5.634-1.23 16.24 16.24 0 0 1-4.468-3.368l-.194.324c.304.431.755.907 1.36 1.425V65.94c0 2.934-1.9 4.404-5.698 4.404v-41.9Zm13.792 23.962c2.546 0 4.533-.56 5.957-1.684 1.425-1.166 2.137-2.763 2.137-4.793V35.373c0-2.114-.712-3.734-2.137-4.857-1.424-1.123-3.431-1.684-6.022-1.684-2.286 0-4.209.605-5.763 1.814-1.554 1.165-2.33 2.633-2.33 4.404v11.203c0 1.727.732 3.196 2.2 4.404 1.468 1.166 3.453 1.749 5.958 1.749Zm33.303 4.986c-3.065 0-5.352-.864-6.863-2.59-1.512-1.77-2.267-4.08-2.267-6.93v-18.91h-6.022c0-1.467.324-2.59.972-3.368.647-.777 1.531-1.165 2.654-1.165h2.461v-6.153c0-1.425.453-2.46 1.36-3.108.951-.69 2.353-1.037 4.209-1.037v10.3h8.612c0 3.021-1.36 4.533-4.08 4.533h-4.467v18.716c0 1.726.303 2.957.906 3.692.648.69 1.791 1.036 3.432 1.036a8.38 8.38 0 0 0 4.274-1.166c.56.56.841 1.316.841 2.267 0 1.036-.54 1.943-1.618 2.72-1.079.777-2.548 1.165-4.404 1.165Z"/>
</svg>
