<svg xmlns="http://www.w3.org/2000/svg" width="336" height="304" fill="none" viewBox="0 0 336 304">
  <g clip-path="url(#a)">
    <path fill="#E8E8E8" d="M.676 249.836c2.933-1.436 4.178-5.247 7.36-6.241 3.265-1.021 6.89.994 9.879-1.215 1.3-.966 2.269-2.568 3.846-3.148 1.384-.497 2.823.055 4.15.47 1.135.359 2.27.69 3.404 1.049 4.566 1.408 9.104 2.789 13.67 4.197 5.174 1.574 10.321 3.176 15.496 4.75.498.166.72-.635.221-.801-9.463-2.899-18.9-5.799-28.363-8.698-2.213-.663-4.51-1.685-6.807-1.961-1.605-.193-2.878.442-4.012 1.491-1.578 1.464-2.767 2.817-5.064 2.927-1.91.111-3.791-.386-5.7-.082-3.93.607-5.147 4.887-8.468 6.517-.498.276-.083.994.388.745Z"/>
    <path fill="#E8E8E8" d="M50.4 246.357c1.965.497 3.515-1.464 5.286-2.044 2.38-.801 4.925-.469 7.084.773.47.276.885-.442.415-.718-1.827-1.077-3.902-1.518-6.005-1.242a9.308 9.308 0 0 0-2.6.718c-1.19.524-2.574 2.043-3.958 1.712-.526-.138-.747.663-.221.801Zm21.335-2.071a58.848 58.848 0 0 1-5.285-4.888 48.547 48.547 0 0 1-2.241-2.513c-.415-.497-.83-.994-1.218-1.491-.276-.359-.553-.718-.802-1.077-.443-.442-.443-.994.027-1.602.332.138.858-.193.581-.58a23.597 23.597 0 0 1-3.735-7.456l-.498.497c.913.249 1.577.718 2.075 1.492.277.441.996.055.72-.415a117.423 117.423 0 0 1-10.045-22.45c-.221.138-.47.276-.692.414 11.594 11.377 16.852 27.2 26.62 39.931.332.414 1.051 0 .72-.415-9.796-12.785-15.11-28.663-26.759-40.096-.277-.276-.83 0-.692.414a116.96 116.96 0 0 0 10.128 22.644c.25-.138.47-.276.72-.414-.637-.966-1.467-1.602-2.574-1.878-.304-.083-.609.194-.498.497a24.808 24.808 0 0 0 3.819 7.65l.58-.58c-.774-.359-1.632 0-1.825.911-.25 1.298 1.328 2.734 2.047 3.645a56.365 56.365 0 0 0 8.302 8.339c.36.332.94-.248.525-.579Z"/>
    <path fill="#E8E8E8" d="M68.83 227.027c-5.092-7.594-9.215-15.741-12.259-24.356-.083.165-.193.331-.276.497.94-.221 1.743.138 2.269.966.276.47.94.056.72-.414-4.29-9.251-8.662-18.888-8.358-29.299-.249.083-.525.138-.774.221a1047.093 1047.093 0 0 1 21.058 46.089c.193.441.913.11.747-.332-1.107-3.314-2.186-6.655-3.293-9.969-.526-1.629-1.08-3.23-1.605-4.86-.36-1.077-1.135-3.424.415-4.004-.166-.055-.305-.138-.47-.193 1.992 3.893 3.956 7.787 5.949 11.681.249.469.968.055.72-.414-2.16-4.225-3.155-8.892-2.962-13.642-.276.028-.553.083-.802.11a368.354 368.354 0 0 0 19.923 41.643c.25.469.969.055.72-.414a365.081 365.081 0 0 1-19.84-41.449c-.167-.415-.803-.387-.803.11-.194 4.888.858 9.665 3.071 14.056.25-.138.47-.276.72-.414-1.993-3.894-3.957-7.788-5.95-11.681-.082-.138-.304-.249-.47-.194-2.767 1.022-.996 4.971-.387 6.821 1.439 4.336 2.85 8.699 4.289 13.034l.747-.331A1047.093 1047.093 0 0 0 50.87 174.2c-.194-.386-.775-.165-.775.221-.332 10.549 4.123 20.352 8.468 29.713.249-.138.47-.276.72-.414-.72-1.132-1.883-1.629-3.21-1.353-.222.055-.36.304-.277.497a110.391 110.391 0 0 0 12.341 24.549c.277.47.996.055.692-.386Zm-54.678 53.378c9.574-4.611 19.674-9.306 30.604-8.201 5.174.524 10.183 2.016 15.33 2.678 2.6.332 5.23.47 7.83.166 2.436-.304 4.732-1.187 7.112-1.712 3.072-.69 5.866.028 8.827.856 2.435.663 4.843 1.215 7.36.635.526-.11.305-.911-.22-.801-5.037 1.188-9.769-2.43-14.86-1.712-2.518.359-4.87 1.353-7.36 1.795-2.63.442-5.314.387-7.97.055-5.23-.607-10.321-2.154-15.579-2.733-5.174-.58-10.294.082-15.247 1.518-5.645 1.657-10.985 4.198-16.243 6.738-.498.221-.055.939.415.718Zm56.172 22.892c3.238-1.38 6.42-2.899 9.491-4.611a119.92 119.92 0 0 0 4.76-2.844c1.411-.912 2.822-2.21 4.372-2.872 1.743-.718 4.372.635 6.115 1.16 1.854.579 3.708 1.132 5.534 1.712a5291.79 5291.79 0 0 1 11.346 3.479c.498.166.719-.635.221-.801-4.04-1.242-8.108-2.485-12.148-3.728-1.937-.607-3.874-1.187-5.81-1.795-1.495-.469-3.377-1.436-4.954-1.049-1.466.359-2.795 1.629-4.04 2.458a111.998 111.998 0 0 1-4.925 3.037 94.943 94.943 0 0 1-10.377 5.109c-.498.221-.055.939.415.745Zm34.423.857c2.103-1.05 4.206-2.127 6.309-3.176 1.937-.994 4.012-2.32 6.226-2.513 2.241-.221 3.985 1.243 5.922 2.099a15.25 15.25 0 0 0 5.174 1.242c4.151.221 8.025-1.85 12.148-1.629 3.293.193 6.613 2.9 9.851 1.188.47-.249.055-.967-.415-.718-2.02 1.077-4.206.027-6.199-.608-1.715-.552-3.376-.801-5.174-.607-4.262.441-8.163 2.236-12.535 1.215-3.625-.829-6.392-3.839-10.294-2.707-1.799.525-3.486 1.519-5.147 2.348-2.103 1.049-4.206 2.126-6.309 3.175-.442.221-.027.939.443.691Z"/>
    <path fill="#E8E8E8" d="M120.907 298.161c-1.716-1.491-3.265-3.148-4.538-5.053-.581-.856-1.107-1.768-1.605-2.679-.249-.469-.47-.939-.664-1.408-.166-.387-.332-.746-.471-1.132-.249-.415-.138-.801.333-1.16l.747-.332a33.446 33.446 0 0 1-5.59-14.911c-.249.11-.47.193-.719.304.498.635.996 1.27 1.522 1.933.304.386.885-.111.664-.498a58.116 58.116 0 0 1-7.444-28.083c-.249.11-.47.193-.719.303 1.881 1.519 3.32 3.397 4.206 5.634l.747-.332c-2.159-4.556-2.601-9.692-1.328-14.552h-.803c5.673 16.209 11.318 32.391 16.99 48.601.166.497.969.276.803-.221a77.375 77.375 0 0 1-4.179-25.847c-.249.11-.47.193-.719.304 1.688 1.518 2.739 3.424 3.127 5.661.083.469.83.359.802-.111-.083-1.684-.193-3.396-.276-5.081-.222.111-.416.249-.637.359 1.467.939 1.743 3.424 2.214 4.971a488.42 488.42 0 0 0 1.522 4.998c1.024 3.424 2.075 6.821 3.099 10.245 2.075 6.821 4.151 13.669 6.226 20.49.166.497.968.303.802-.221-2.241-7.346-4.455-14.719-6.696-22.064-1.079-3.59-2.186-7.18-3.265-10.77-.554-1.85-1.107-3.672-1.661-5.523-.359-1.132-.774-2.154-1.798-2.816-.249-.166-.637.055-.637.359.083 1.684.194 3.396.277 5.081.277-.028.554-.083.803-.111-.388-2.375-1.55-4.446-3.349-6.047-.276-.249-.691-.083-.719.303a78.078 78.078 0 0 0 4.206 26.068c.277-.082.526-.138.802-.22-5.672-16.21-11.317-32.392-16.99-48.602-.138-.359-.692-.414-.802 0a22.294 22.294 0 0 0 1.411 15.188c.194.414.941.111.747-.331-.941-2.375-2.407-4.391-4.427-5.993-.277-.22-.72-.082-.72.304a58.817 58.817 0 0 0 7.555 28.498l.664-.497c-.498-.635-.997-1.27-1.522-1.933-.222-.276-.747-.055-.72.304a33.992 33.992 0 0 0 5.701 15.326c.276.387.83.138.747-.331-.139-.774-1.052-1.05-1.688-.58-1.162.828-.028 2.789.387 3.728 1.577 3.507 3.929 6.572 6.835 9.085.581.303 1.162-.276.747-.608Z"/>
    <path fill="#E8E8E8" d="M91.963 236.222c-.36-5.191 9.076-2.209 11.705-1.712 4.316.801 8.606 1.602 12.922 2.403 8.606 1.601 17.239 3.203 25.845 4.805.526.11.747-.691.221-.801-9.878-1.85-19.729-3.673-29.608-5.523-4.842-.911-9.685-1.823-14.527-2.706-1.743-.332-3.763-.691-5.396.221-1.245.662-2.075 1.877-1.965 3.313 0 .525.858.525.803 0Z"/>
    <path fill="#E8E8E8" d="M136.707 240.806c2.878.304 4.649-2.43 6.89-3.755 1.91-1.105 3.57-.249 5.535.138 2.186.442 4.427.497 6.641.221.525-.056.525-.884 0-.829-2.491.304-4.981.194-7.416-.414-1.467-.387-2.795-.856-4.261-.276-2.602.994-4.373 4.418-7.389 4.087-.525-.055-.525.773 0 .828Zm52.769 53.103c6.641-2.32 13.338-4.64 20.2-6.297 7.167-1.712 14.389-2.402 21.75-2.181 7.277.221 14.499 1.049 21.749 1.712 7.278.69 14.555 1.353 21.833 2.044 8.357.773 16.741 1.546 25.098 2.347.525.055.525-.773 0-.829a26559.29 26559.29 0 0 1-44.772-4.169c-14.362-1.326-28.806-3.287-43.112-.332-7.859 1.629-15.441 4.28-22.995 6.904-.47.165-.249.966.249.801Zm29.249-27.173c4.953-1.049 9.601-3.12 14.278-4.998 5.008-1.988 10.072-3.369 15.44-3.838 5.424-.47 10.875-.194 16.271.138 5.424.331 10.847.718 16.298 1.104 6.337.47 12.702.994 19.038 1.547.526.055.526-.774 0-.829a1375.523 1375.523 0 0 0-33.731-2.568c-10.709-.69-21.251-.966-31.462 2.817-5.424 2.016-10.681 4.584-16.381 5.799-.471.138-.277.939.249.828Zm63.782-31.839c3.957-3.01 8.135-5.965 12.562-8.229 2.159-1.105 4.483-1.989 6.918-2.182 2.629-.221 5.258.304 7.831.635 5.23.635 10.488 1.022 15.745 1.353 3.487.221 7.914.718 10.377-2.319.332-.415-.249-.994-.581-.58-2.795 3.452-8.689 2.154-12.508 1.905a271.423 271.423 0 0 1-15.689-1.519c-2.242-.276-4.455-.497-6.697-.082-2.213.386-4.289 1.27-6.253 2.319-4.262 2.264-8.302 5.081-12.148 8.008-.387.304.028 1.022.443.691Zm-152.33-4.557c3.929-2.954 7.886-5.882 11.815-8.836 3.764-2.817 7.278-5.772 12.203-6.02 4.649-.221 9.409.304 14.03.69 4.981.414 9.934.967 14.859 1.657 4.151.58 9.104 2.126 13.033-.028.471-.248.056-.966-.415-.718-2.02 1.105-4.261 1.105-6.502.829-2.408-.304-4.815-.718-7.223-1.05a262.873 262.873 0 0 0-14.029-1.546c-4.621-.387-9.408-.939-14.029-.663-4.289.249-7.471 2.458-10.82 4.971-4.455 3.314-8.882 6.655-13.337 9.969-.415.359 0 1.077.415.745Z"/>
    <path fill="#E8E8E8" d="M285.855 259.529c.249-1.823.609-3.59 1.135-5.357.249-.829.498-1.657.83-2.486.193-.497.719-1.325 1.439-1.132.359.111.525 1.353.553 1.602.055.442.664.58.802.11 1.301-4.225 2.795-8.864 6.78-11.322-.221-.11-.415-.248-.637-.359 0 .691-.027 1.409-.027 2.099 0 .387.581.58.775.221 2.462-5.109 5.146-10.466 10.127-13.559-.193-.165-.415-.303-.609-.469a162.487 162.487 0 0 1-8.688 18.778c-.222.386.332.883.664.497 1.854-2.209 3.735-4.419 6.171-6.02l-.582-.58a220.328 220.328 0 0 1-10.1 18.888c-.276.469.443.884.72.414a229.043 229.043 0 0 0 10.1-18.888c.166-.331-.194-.828-.581-.58-2.491 1.657-4.428 3.894-6.337 6.158l.664.497a163.546 163.546 0 0 0 8.772-18.971c.138-.331-.332-.635-.609-.469-5.119 3.175-7.886 8.615-10.432 13.862.249.083.526.138.775.221 0-.69.028-1.408.028-2.099 0-.303-.36-.524-.637-.359-4.15 2.568-5.783 7.373-7.139 11.819.277.028.553.083.802.111-.138-1.409-1.411-3.811-2.96-2.016-.775.911-1.08 2.402-1.412 3.535-.553 1.822-.94 3.7-1.217 5.605-.028.553.747.773.83.249ZM92.516 212.916c2.159-1.16 4.345-2.32 6.724-2.955 2.519-.663 5.009-.442 7.527-.11 5.009.662 10.017 1.325 14.998 1.988.526.083.526-.746 0-.829-5.341-.718-10.709-1.491-16.049-2.126-2.463-.304-4.815-.304-7.195.387-2.269.662-4.372 1.795-6.447 2.899-.47.304-.028.994.442.746ZM260.84 25.607c1.993-1.684 4.787-1.353 6.973-.276 1.661.801 3.017 2.43 4.954 2.513 1.798.055 3.292-1.16 4.814-1.96 1.024-.525 2.076-.884 3.238-.636 1.245.249 2.324.967 3.459 1.464 3.735 1.63 6.226-.635 9.38-2.43.886-.497 1.827-.939 2.85-1.022 1.301-.11 2.463.47 3.625.967 1.827.773 3.21 1.077 5.064.331 1.909-.745 3.459-.635 5.368.055 1.218.442 2.38.994 3.653 1.27 1.909.442 3.957.332 5.396-1.132.387-.386-.222-.966-.581-.58-1.854 1.878-4.677.995-6.807.166-2.159-.828-4.372-1.712-6.669-.856-1.439.552-2.408.939-3.957.414-1.052-.359-2.02-.939-3.099-1.242-1.633-.497-3.155-.221-4.649.524-1.716.856-3.21 2.21-5.009 2.928-2.379.938-4.233-.304-6.392-1.215-1.577-.663-3.071-.774-4.648-.083-1.91.856-3.764 2.733-6.005 1.933-1.19-.415-2.131-1.381-3.21-1.989a10.061 10.061 0 0 0-2.933-1.049c-1.965-.359-3.874-.028-5.424 1.27-.387.415.222.994.609.635Zm9.962 18.861c.526 0 .526-.829 0-.829s-.526.829 0 .829Zm5.534 3.01c1.301-2.347 4.372-1.215 6.281-.442 1.91.773 3.625 1.243 5.645.552 1.661-.58 3.155-1.684 4.87-2.07 2.38-.553 3.736 1.463 5.894 1.932 3.376.746 6.78-3.01 9.962-1.436.886.442 1.494 1.022 2.546.94.968-.056 1.854-.525 2.795-.746 2.628-.608 5.368-.138 7.72 1.16.47.248.885-.47.415-.718a12.265 12.265 0 0 0-4.787-1.492 10.27 10.27 0 0 0-2.601.083c-1.024.138-1.965.58-2.961.773-1.356.249-1.937-.414-3.044-.883a4.227 4.227 0 0 0-1.743-.304c-1.384.055-2.712.635-3.985 1.105-1.632.607-3.376 1.187-5.036.358-1.411-.69-2.518-1.74-4.178-1.74-3.432.028-5.839 3.315-9.464 2.32-2.684-.745-7.001-3.369-8.993.166-.304.497.415.911.664.442Zm-26.841 33.054c1.965-1.546 4.206-1.463 6.364-.469 1.19.552 2.463 1.077 3.708.331.72-.442 1.19-1.132 2.048-1.38.913-.276 1.882-.083 2.767.138 1.577.386 3.099 1.077 4.732 1.187 1.937.138 3.708-.69 5.59-.884 2.02-.193 3.431 1.022 5.312 1.298 1.827.249 3.238-1.215 5.064-.939 2.214.332 4.4 1.077 6.586 1.63.526.138.747-.663.221-.801-2.296-.58-4.676-1.464-7.028-1.712-1.992-.221-3.431 1.408-5.424.8-1.854-.552-3.182-1.352-5.174-1.076-2.131.303-4.068 1.132-6.254.662-1.688-.359-3.32-1.16-5.064-1.27-.636-.028-1.3.028-1.909.276-.775.304-1.19.94-1.909 1.353-1.661.967-3.902-1.077-5.673-1.215-1.688-.138-3.237.442-4.566 1.464-.415.359.194.939.609.607ZM90.856 20.278c.526 0 .526-.828 0-.828s-.526.828 0 .828Zm2.435.635c.498-2.458 3.763-.884 4.953-.138 1.356.856 2.795 1.63 4.455 1.16 1.799-.525 3.016-2.071 5.009-2.182 1.881-.083 3.708.773 5.479 1.326 1.522.47 3.127.8 4.704.414 1.854-.442 3.431-1.74 5.313-2.071 3.708-.635 7.056 2.375 10.819 1.215.498-.166.304-.967-.221-.801-3.93 1.243-7.665-2.237-11.65-.994-2.048.635-3.763 2.071-6.005 1.988-2.075-.083-3.956-1.077-5.921-1.574-1.55-.387-3.127-.497-4.621.193-.858.387-1.605 1.022-2.463 1.436-1.411.663-2.601.276-3.874-.442-1.383-.8-2.573-1.74-4.261-1.601-1.19.083-2.242.69-2.463 1.905-.138.47.664.69.747.166Zm2.519 161.24c3.292-1.38 6.613 1.077 9.933 1.243 1.716.083 3.376-.331 5.064-.663 2.131-.414 3.957-.442 6.005.414 1.245.525 2.379.856 3.652.359.72-.276 1.329-.745 2.048-.994.802-.276 1.633-.331 2.49-.331 2.961.055 5.922 1.077 8.744-.249.471-.221.056-.938-.415-.718-3.016 1.409-6.364-.138-9.546.194-1.522.165-2.518 1.049-3.929 1.463-1.688.497-3.349-.939-5.009-1.187-3.57-.552-6.945 1.436-10.543.718-2.877-.58-5.783-2.265-8.716-1.022-.47.193-.25.994.221.773Z"/>
    <path fill="#0A3871" d="M35.984 141.477a4.367 4.367 0 0 0 4.372-4.363 4.368 4.368 0 0 0-4.372-4.363 4.368 4.368 0 0 0-4.372 4.363 4.367 4.367 0 0 0 4.372 4.363Zm254.492-29.989a3.069 3.069 0 0 0 3.072-3.065 3.069 3.069 0 0 0-3.072-3.065 3.068 3.068 0 0 0-3.071 3.065 3.068 3.068 0 0 0 3.071 3.065ZM262.833 4.703a2.267 2.267 0 0 0 2.269-2.264 2.267 2.267 0 0 0-2.269-2.264 2.266 2.266 0 0 0-2.269 2.264 2.266 2.266 0 0 0 2.269 2.264Zm-99.949 196.366a2.82 2.82 0 0 0 2.823-2.817 2.82 2.82 0 0 0-2.823-2.816 2.819 2.819 0 0 0-2.822 2.816 2.82 2.82 0 0 0 2.822 2.817ZM32.774 41.1a3.234 3.234 0 0 0 3.238-3.232c0-1.784-1.45-3.23-3.238-3.23a3.234 3.234 0 0 0-3.237 3.23 3.234 3.234 0 0 0 3.237 3.231ZM144.4 154.456a1.852 1.852 0 0 0 1.854-1.85c0-1.022-.83-1.85-1.854-1.85a1.852 1.852 0 0 0-1.854 1.85c0 1.022.83 1.85 1.854 1.85Zm174.992 15.74a2.82 2.82 0 0 0 2.823-2.816 2.82 2.82 0 0 0-2.823-2.817 2.82 2.82 0 0 0-2.822 2.817 2.82 2.82 0 0 0 2.822 2.816ZM11.744 216.754a2.1 2.1 0 0 0 2.103-2.099 2.1 2.1 0 0 0-2.103-2.098 2.1 2.1 0 0 0-2.103 2.098c0 1.159.942 2.099 2.103 2.099Z"/>
    <path fill="#fff" d="M97.746 53.664c-2.407 4.887-4.842 9.775-7.25 14.663 9.962 13.338 19.923 26.648 29.885 39.986 2.574-3.894 5.119-7.871 7.693-11.875a1055.089 1055.089 0 0 0 17.377-28.194c-1.881-4.777-3.791-9.582-5.672-14.36-1.218-.635-2.435-1.242-3.653-1.877l-35.336.083c-1.052.552-2.048 1.077-3.044 1.574Z"/>
    <path fill="#000" d="M90.828 68.548a622.778 622.778 0 0 1 6.475-13.752c.222-.47-.47-.911-.72-.414a622.77 622.77 0 0 0-6.474 13.752c-.222.47.498.91.72.414Z"/>
    <path fill="#000" d="M90.275 69.045a1718.405 1718.405 0 0 0 29.802 39.571c.332.415.913-.165.581-.58a1785.635 1785.635 0 0 1-29.664-39.405c-.304-.415-1.023 0-.72.414Zm7.222-14.718c1.162-.608 2.297-1.243 3.459-1.85.47-.25.055-.967-.415-.719-1.162.608-2.297 1.243-3.459 1.85-.498.277-.055.967.415.719Z"/>
    <path fill="#000" d="M101.648 52.532h25.928c.525 0 .525-.829 0-.829h-25.928c-.526 0-.526.829 0 .829Zm44.191 15.629a646.752 646.752 0 0 0-5.396-13.752c-.194-.497-.996-.276-.803.221a589.083 589.083 0 0 1 5.396 13.752c.194.497.996.276.803-.22Z"/>
    <path fill="#000" d="M144.925 68.576a1884.54 1884.54 0 0 1-24.821 39.488c-.304.442.415.856.72.414a1818.614 1818.614 0 0 0 24.821-39.488c.277-.442-.443-.884-.72-.414Zm-4.98-15.023c-.969-.607-1.937-1.242-2.906-1.85-.443-.276-.858.414-.415.718.969.608 1.937 1.243 2.906 1.85.47.304.885-.414.415-.718Z"/>
    <path fill="#000" d="M136.098 51.62h-21.639c-.525 0-.525.829 0 .829h21.639c.526 0 .526-.829 0-.829ZM91.16 68.962l14.86-6.379c.498-.22.055-.911-.415-.718l-14.86 6.38c-.47.22-.055.938.415.717Zm6.475-14.884a76.682 76.682 0 0 1 8.993 1.96c.526.139.748-.662.222-.8a71.503 71.503 0 0 0-8.993-1.96c-.526-.084-.775.717-.222.8Z"/>
    <path fill="#000" d="M106.407 55.9a80.792 80.792 0 0 1 1.743 6.269c.111.525.914.304.803-.221a80.78 80.78 0 0 0-1.743-6.268c-.166-.498-.969-.304-.803.22Z"/>
    <path fill="#000" d="M107.68 55.983h22.22c.526 0 .526-.828 0-.828h-22.22c-.526 0-.526.828 0 .828Z"/>
    <path fill="#000" d="M129.54 56.149c-.276 1.519-.553 3.065-.83 4.584-.083.525.72.746.803.22.276-1.518.553-3.064.83-4.583.083-.525-.72-.746-.803-.221Zm-20.947 6.075h19.453c.526 0 .526-.828 0-.828h-19.453c-.526 0-.526.828 0 .828Zm22.11-6.241c3.016-.635 6.004-1.27 9.02-1.905.526-.11.305-.911-.221-.8-3.016.634-6.005 1.27-9.021 1.904-.526.111-.304.912.222.801Z"/>
    <path fill="#000" d="M129.319 61.976c2.795.441 5.396 2.016 7.942 3.203 2.711 1.27 5.395 2.54 8.107 3.81.471.222.913-.496.415-.717-2.877-1.353-5.728-2.679-8.605-4.032-2.435-1.16-4.954-2.623-7.638-3.065-.525-.083-.747.718-.221.8Zm-20.477 1.518c3.598 14.802 7.167 29.63 10.764 44.432.139.525.913.304.803-.221-3.597-14.801-7.167-29.63-10.764-44.431-.139-.525-.941-.304-.803.22Z"/>
    <path fill="#000" d="M128.157 64.489a518.379 518.379 0 0 0-8.329 43.161c-.083.524.719.745.802.221 2.158-14.498 4.953-28.885 8.329-43.162.139-.524-.664-.745-.802-.22Zm.276-27.642a29.775 29.775 0 0 0 2.048-9.942c.028-.524-.802-.524-.83 0a29.317 29.317 0 0 1-2.02 9.72c-.194.498.609.691.802.222Zm5.673.552c2.656-3.01 5.645-5.661 8.993-7.898.443-.304.028-1.021-.415-.718a46.187 46.187 0 0 0-9.159 8.036c-.36.387.221.966.581.58Zm5.451 5.109a28.962 28.962 0 0 1 10.543-1.133c.526.028.526-.8 0-.828-3.653-.276-7.25.11-10.764 1.16-.498.165-.304.966.221.8Z"/>
    <path fill="#E8E8E8" d="M81.254 23.15c.332 5.468-2.74 10.687-7.665 13.061-.277.139-.249.553 0 .718 4.51 2.707 6.586 7.677 7.776 12.565.138.525.913.304.802-.221-1.245-5.109-3.459-10.273-8.163-13.062v.718c5.175-2.513 8.44-8.063 8.08-13.78-.028-.524-.858-.524-.83 0Z"/>
    <path fill="#E8E8E8" d="M81.558 23.15c-.36 5.744 2.906 11.294 8.08 13.78v-.719c-4.731 2.817-6.945 7.981-8.19 13.117-.139.525.664.746.802.221 1.19-4.915 3.265-9.913 7.803-12.62.25-.138.277-.58 0-.718-4.925-2.374-8.024-7.593-7.692-13.061.055-.525-.775-.525-.803 0Z"/>
    <path fill="#000" d="M216.29 230.451a39.116 39.116 0 0 0 3.818-1.878c2.546-1.408 3.819-2.126 4.594-3.258.996-1.492.608-2.292 1.909-3.784.194-.248 1.107-1.215 2.297-1.739 2.047-.856 3.957.165 7.139 1.298 2.933 1.049 5.23 1.546 9.823 2.568 1.826.414 4.04.828 7.25 1.822.913.276 1.633.525 2.131.691.055.58.083 2.071-.886 3.424-.443.607-1.051 1.104-2.02 1.546-2.241 1.05-4.372.856-6.171.773-3.874-.165-2.269.387-11.4.553-1.992.027-3.625.027-4.76.027a310.975 310.975 0 0 0-4.261 2.983 227.899 227.899 0 0 0-6.973 5.274c-.83-3.424-1.66-6.876-2.49-10.3Z"/>
    <path fill="#fff" d="M204.751 195.105c-1.993 1.049-2.214 1.435-9.63 7.732-11.566 9.803-12.839 10.327-23.327 19.468-10.044 8.726-11.926 10.907-13.835 13.779-4.76 7.263-5.811 13.338-6.116 16.293-.415 3.976-.968 9.499 2.546 13.862 2.214 2.734 5.092 3.866 6.06 4.225 2.906 1.105 5.285.967 9.574.663 5.701-.414 10.045-1.519 11.761-1.988 1.881-.525 6.253-1.823 11.732-4.529 5.147-2.541 7.361-4.418 14.389-9.14a352.286 352.286 0 0 1 13.559-8.699c.36-2.761.056-4.915-.249-6.268-.719-3.204-2.186-5.413-3.818-7.843a41.159 41.159 0 0 0-3.487-4.501 61.13 61.13 0 0 0 7.637-6.876c1.91-2.044 4.926-5.302 7.444-9.886 3.099-5.633 6.198-11.322 4.206-15.243-3.127-6.158-18.014-6.434-28.446-1.049Z"/>
    <path fill="#9B9797" d="M229.544 198.115a70.455 70.455 0 0 1-8.329 14.331c-6.032 7.981-12.12 12.399-21.307 18.944-25.983 18.501-32.956 22.726-32.181 24.494 1.051 2.402 15.689-1.906 17.82-2.541 15.551-4.584 27.007-11.653 34.174-16.817a2158.417 2158.417 0 0 0-5.479-8.339c2.241-1.602 5.341-4.143 8.246-7.926 1.605-2.071 4.04-5.274 5.617-10.107 1.605-4.805 1.661-9.085 1.439-12.039Z" opacity=".18"/>
    <path fill="#000" d="M204.64 195.077c-9.851 7.318-19.453 14.995-28.695 23.03-4.427 3.839-8.855 7.677-13.005 11.792-3.681 3.645-7.112 7.677-9.187 12.481-2.159 4.971-2.767 10.715-2.242 16.1.443 4.446 2.076 8.919 6.143 11.239 4.262 2.402 9.63 2.154 14.334 1.657a61.476 61.476 0 0 0 16.879-4.17c12.037-4.888 21.473-14.028 32.846-20.076.471-.248.056-.966-.415-.718-9.491 5.054-17.571 12.344-27.09 17.397-4.981 2.651-10.349 4.584-15.883 5.772-5.119 1.077-10.875 1.905-16.077.911-2.435-.47-4.787-1.464-6.531-3.286-1.688-1.795-2.601-4.142-3.071-6.545-1.024-5.219-.554-11.128 1.162-16.154s5.064-9.251 8.716-13.007c3.791-3.893 7.942-7.483 12.01-11.045a475.101 475.101 0 0 1 30.521-24.632c.415-.332.028-1.05-.415-.746Z"/>
    <path fill="#000" d="M177.522 251.686c9.076-3.507 17.295-8.753 25.098-14.497 3.846-2.817 7.637-5.744 11.401-8.671 3.708-2.9 7.249-5.965 10.127-9.693.332-.414-.387-.828-.719-.414-2.933 3.811-6.614 6.876-10.377 9.831-3.708 2.899-7.443 5.771-11.262 8.56-7.637 5.578-15.634 10.715-24.489 14.111-.498.166-.277.967.221.773Z"/>
    <path fill="#000" d="M213.606 228.435c5.34 4.474 8.163 11.405 7.415 18.336-.055.525.775.525.831 0 .747-7.124-2.186-14.304-7.665-18.916-.388-.359-.969.221-.581.58Z"/>
    <path fill="#000" d="M220.966 239.067c1.577-.47 2.961-1.795 4.289-2.734 1.66-1.16 3.293-2.32 4.953-3.48.443-.303.028-1.021-.415-.718-1.494 1.05-3.016 2.127-4.51 3.176-1.384.967-2.906 2.458-4.538 2.955-.526.138-.305.939.221.801Zm-4.566-8.23a33.113 33.113 0 0 0 8.606-5.246c.415-.359-.194-.939-.581-.58a30.992 30.992 0 0 1-8.218 5.026c-.499.221-.277 1.021.193.8Z"/>
    <path fill="#000" d="M224.702 225.232c.525 0 .525-.829 0-.829-.526 0-.526.829 0 .829Z"/>
    <path fill="#000" d="M225.698 224.238c.47-1.105.968-2.32 1.854-3.176 1.19-1.16 2.629-.994 4.15-.663 2.823.635 5.59 1.519 8.357 2.32 2.574.718 5.147 1.353 7.803 1.657 1.55.165 2.851.359 4.234 1.049 1.024.497 1.909.994 3.044 1.105.526.055.526-.773 0-.829-1.522-.138-2.712-1.187-4.151-1.657-1.439-.469-3.044-.441-4.538-.69-3.265-.525-6.447-1.519-9.602-2.458-1.549-.441-3.099-.883-4.676-1.242-1.162-.249-2.38-.553-3.542-.194-2.02.608-2.989 2.762-3.736 4.557-.193.497.609.718.803.221Z"/>
    <path fill="#000" d="M230.098 233.461c5.921-.884 11.787-1.022 17.764-1.132 2.076-.028 4.289-.276 5.95-1.63 1.411-1.159 2.213-2.844 1.826-4.639-.111-.524-.913-.304-.802.221.525 2.513-1.744 4.363-3.985 4.916-2.297.552-4.787.276-7.139.331-4.649.083-9.242.469-13.836 1.16-.526.055-.277.856.222.773Z"/>
    <path fill="#000" d="M251.1 227.965c2.048-1.463 4.123-2.927 6.171-4.39.138-.939.581-2.983 2.269-4.722.498-.525 1.66-1.74 3.403-2.071 1.827-.359 3.238.469 4.815 1.187 2.546 1.16 5.008 1.602 9.879 2.541 3.846.718 5.783 1.077 8.55.938 3.763-.22 6.447-1.215 8.052.359.166.166.858.912.803 1.823-.083 1.16-1.328 1.905-2.325 2.485-4.344 2.486-6.779 3.204-6.779 3.204-6.143 1.794-9.242 2.706-11.899 2.927-2.158.165-5.23.248-8.937-.332-1.08 3.701-4.345 6.075-7.416 5.882-3.957-.248-7.61-4.694-6.586-9.831Z"/>
    <path fill="#fff" d="M211.364 203.554c.609-1.85 1.743-4.197 3.874-4.97 1.384-.497 2.656-.166 3.072-.055 2.573.635 7.858-.277 18.401-2.072a244.225 244.225 0 0 0 19.453-4.114c.027 1.408 0 3.258-.083 5.412-.194 4.833-.692 8.478-.803 9.334-.47 3.424-1.3 9.113-3.818 16.016a61.131 61.131 0 0 1-1.716 4.225 15.256 15.256 0 0 1 3.376 2.099c4.676 3.728 6.032 9.002 6.475 11.239a69.148 69.148 0 0 1-2.933 3.341c-5.147 5.468-9.906 8.533-18.983 14.139-5.589 3.452-9.685 5.965-16.243 9.831-7.969 4.694-14.416 8.339-22.441 10.631-1.992.58-5.147 1.353-9.131.939-1.937-.193-5.424-.552-8.772-2.982-4.289-3.093-5.645-7.622-6.199-9.61-1.245-4.446-.774-8.616.388-12.951.802-3.038 3.708-13.117 13.808-24.467 2.02-2.264 7.775-7.373 19.231-17.59 2.767-2.458 5.036-4.473 6.558-5.799a162.487 162.487 0 0 0-3.514-2.596Z"/>
    <path fill="#9B9797" d="M248.997 195.905c-.637 2.43-1.66 5.937-3.21 10.052-14.14 37.39-45.741 53.544-43.167 57.576 1.882 2.982 19.923-4.446 32.929-12.261a119.474 119.474 0 0 0 21.832-16.845c-.775-1.132-1.964-2.678-3.763-4.142a19.361 19.361 0 0 0-4.649-2.789 28.623 28.623 0 0 0 2.961-5.523c.636-1.546 1.19-3.203 1.909-6.572a101.441 101.441 0 0 0 1.771-10.88c.332-3.176.637-7.29.581-12.151-2.407 1.16-4.787 2.348-7.194 3.535Z" opacity=".18"/>
    <path fill="#000" d="M255.776 192.343a109.595 109.595 0 0 1-1.023 15.63c-.665 4.666-1.495 9.471-3.21 13.89-1.854 4.777-5.037 8.256-8.883 11.542-3.929 3.342-7.886 6.628-11.843 9.914-4.538 3.783-9.104 7.539-13.642 11.322-.415.331.166.911.581.58 8.329-6.904 16.658-13.78 24.932-20.766 3.652-3.093 6.973-6.296 8.965-10.742 1.937-4.308 2.878-9.03 3.625-13.669a105.181 105.181 0 0 0 1.328-17.701c0-.552-.83-.552-.83 0Zm-43.942 11.985c1.135.607 2.27 1.215 3.432 1.822.47.249.885-.469.415-.718-1.135-.607-2.269-1.215-3.431-1.822-.471-.249-.886.469-.416.718Z"/>
    <path fill="#000" d="M215.266 205.819c-9.851 8.008-20.2 15.933-28.419 25.654-7.083 8.367-12.922 18.971-12.894 30.21 0 4.943 1.356 10.107 5.008 13.614 3.653 3.534 8.938 4.915 13.919 4.666 6.087-.303 11.871-2.706 17.294-5.357 5.811-2.844 11.318-6.213 16.852-9.554 11.4-6.904 24.129-13.338 32.68-23.859.332-.414-.249-.994-.581-.58-7.167 8.837-17.24 14.497-26.842 20.296-5.285 3.204-10.515 6.462-15.91 9.5-5.286 2.982-10.792 5.826-16.631 7.511-5.479 1.574-11.594 1.905-16.769-.828-4.98-2.596-7.526-7.622-8.052-13.09-1.024-11.045 4.538-22.036 11.262-30.431 8.385-10.466 19.342-18.805 29.691-27.2.388-.304-.193-.884-.608-.552Z"/>
    <path fill="#000" d="M249.55 227.662a17.382 17.382 0 0 1 9.685 13.089c.083.525.886.304.803-.221-.858-5.882-4.677-11.046-10.045-13.586-.498-.221-.913.497-.443.718Z"/>
    <path fill="#000" d="M251.211 228.38c1.106-.442 1.992-1.188 2.933-1.906 1.107-.856 2.241-1.684 3.348-2.54.415-.332 0-1.05-.415-.718-.996.745-1.992 1.491-2.989 2.264-.968.746-1.937 1.657-3.099 2.099-.47.193-.276.994.222.801Z"/>
    <path fill="#000" d="M257.907 223.602c.553-1.629 1.218-3.231 2.103-4.722 1.218-2.043 3.044-1.822 5.092-1.298 3.182.801 6.226 2.016 9.435 2.734a67.44 67.44 0 0 0 18.983 1.436c.526-.027.526-.856 0-.828a66.125 66.125 0 0 1-22.303-2.32c-1.743-.497-3.431-1.132-5.175-1.629-1.328-.387-2.905-.829-4.289-.552-1.245.248-1.964 1.187-2.573 2.236-.858 1.492-1.522 3.093-2.075 4.722-.166.497.636.718.802.221Zm1.19 13.338c2.075-1.574 4.123-3.148 6.198-4.722.415-.331 0-1.049-.415-.718-2.075 1.574-4.123 3.148-6.198 4.722-.415.331 0 1.049.415.718Z"/>
    <path fill="#000" d="M265.268 232.025c6.751 1.463 13.641.359 20.034-2.071 2.905-1.105 6.226-2.348 8.716-4.225 1.743-1.298 1.992-3.783-.304-4.667-.499-.193-.72.607-.222.801 1.245.469 1.384 1.822.526 2.761-.415.47-.996.773-1.55 1.105a57.75 57.75 0 0 1-3.459 1.767 53.024 53.024 0 0 1-7.637 2.927c-5.174 1.491-10.598 1.988-15.911.829-.498-.139-.719.662-.193.773Z"/>
    <path fill="#0A3871" d="M193.156 112.759c4.206-3.48 10.488-7.677 18.872-10.163 3.929-1.159 8.855-2.595 15.385-2.043 10.017.856 16.907 5.771 19.343 7.566a40.022 40.022 0 0 1 8.024 7.815c.305 19.358.72 38.743 1.245 58.101.166 5.965.332 11.957.526 17.922a54.29 54.29 0 0 1-16.409 6.765c-16.326 3.728-29.912-1.243-35.419-3.645a130.087 130.087 0 0 0-1.826-21.042c-2.435-14.47-6.226-20.297-8.606-32.751-1.19-6.434-2.324-16.099-1.135-28.525Z"/>
    <path fill="#fff" d="M243.186 117.536c-1.356 1.491-1.605 3.175-1.522 9.637.055 6.793.415 11.432.637 16.817.166 3.894.304 6.987.221 11.018-.083 5.081-.415 9.251-.72 12.04a120.69 120.69 0 0 1-6.917 7.125c-4.04 3.838-8.44 7.98-14.943 11.874a72.047 72.047 0 0 1-6.281 3.314c-1.356-.221-2.878-.553-4.538-.967-3.93-.994-5.562-1.878-8.523-1.878-.885 0-3.68 0-3.957.994-.249.829 1.301 2.127 2.518 2.762 1.135.58 1.633.414 2.767.939a7.068 7.068 0 0 1 2.601 2.154c-.525.745-1.328 1.878-2.213 3.341-1.024 1.712-1.246 2.375-2.435 4.418-1.246 2.154-1.882 3.231-2.435 3.784-.858.8-1.384.966-5.23 2.678-3.819 1.712-4.483 2.099-4.483 2.568 0 .47.747.58 3.708 1.85 2.407 1.022 2.629 1.243 3.874 1.602 1.549.442 2.49.718 3.625.469 1.798-.359 2.961-1.712 3.459-2.43.249.221.857.691 1.66.718.636 0 1.162-.248 1.577-.579 1.743-1.243 2.601-3.535 4.317-6.103.304-.442 1.383-2.071 3.127-3.894a26.435 26.435 0 0 1 2.795-2.596 71.247 71.247 0 0 0 4.123-1.049c6.668-1.905 11.483-4.197 15.523-6.13 2.352-1.133 5.009-2.624 10.294-5.578 4.593-2.569 6.973-4.005 9.076-6.821.221-.304 1.356-1.823 2.352-4.06.304-.69 1.384-3.148 1.965-7.455.276-1.906.276-2.955.304-8.92.055-7.594.055-6.683.055-7.456-.027-11.128-.608-10.134-.802-20.352-.028-.966-.055-3.589-.858-6.903-.858-3.59-1.937-5.192-2.546-5.992-.774-1.022-1.715-2.237-3.32-2.928-2.933-1.297-6.835-.248-8.855 1.989Z"/>
    <path fill="#9B9797" d="M252.068 115.52a62.43 62.43 0 0 1 2.02 9.14c.665 4.612.914 9.693-.581 22.975-1.245 11.101-1.854 16.652-3.459 21.843-2.296 7.401-3.957 12.786-9.02 17.038-3.266 2.734-6.835 4.004-14.002 6.517-5.258 1.851-9.768 2.955-12.867 3.645a52.47 52.47 0 0 1-10.183 10.356 51.494 51.494 0 0 1-10.072 6.075c.415.276 2.13 1.381 4.455 1.077 2.711-.359 4.178-2.292 4.427-2.651.526.387 1.301.801 2.158.663 1.771-.276 2.712-2.789 3.183-3.921 1.023-2.348 3.071-5.579 7.664-9.113a117.822 117.822 0 0 0 11.954-3.839c6.669-2.568 11.152-5.053 15.967-7.732 7.72-4.307 9.463-6.075 10.736-7.787 2.325-3.12 3.293-6.324 3.708-7.732.747-2.513.886-5.329 1.162-10.825.194-4.087.194-7.235.194-9.61 0-4.086-.083-7.124-.166-9.747a180.932 180.932 0 0 0-.886-13.642c-.415-3.894-.719-5.44-1.604-7.18-1.356-2.761-3.376-4.528-4.788-5.55Z" opacity=".25"/>
    <path fill="#000" d="M242.771 117.425c-1.439 3.59-1.605 7.456-1.522 11.294.083 4.225.304 8.423.498 12.648.388 8.56.664 17.148-.36 25.681-.055.525.775.525.831 0 .996-8.339.774-16.762.387-25.129-.194-4.142-.415-8.284-.526-12.454-.111-4.004-.028-8.036 1.494-11.819.194-.497-.608-.718-.802-.221Z"/>
    <path fill="#000" d="M242.992 166.33c-2.545 1.409-4.593 3.452-6.558 5.578-2.13 2.292-4.261 4.529-6.641 6.573-4.87 4.225-10.349 7.704-16.215 10.41-.498.221-.056.939.415.718 5.645-2.596 10.93-5.909 15.662-9.913 2.352-1.961 4.51-4.115 6.586-6.352 2.158-2.347 4.316-4.722 7.139-6.268.498-.304.083-1.022-.388-.746Z"/>
    <path fill="#000" d="M213.771 188.946a537.12 537.12 0 0 1-9.159-1.988c-1.522-.331-3.071-.745-4.621-1.021-.968-.166-1.992-.249-2.85.303-1.328.856-1.328 2.43-.138 3.369.858.691 1.964.994 2.988 1.326 1.661.524 3.072 1.187 4.151 2.595.332.415 1.051 0 .719-.414-.968-1.242-2.13-2.126-3.625-2.651-1.023-.359-2.158-.58-3.099-1.104-.664-.359-1.522-.912-1.024-1.906.471-.939 1.661-.856 2.519-.718 2.296.332 4.593.994 6.89 1.519 2.352.525 4.704 1.022 7.056 1.519.498.083.719-.718.193-.829Z"/>
    <path fill="#000" d="M203.478 193.669c-1.218 2.236-2.463 4.445-3.68 6.682-.609 1.077-1.135 2.237-1.854 3.286-.748 1.077-1.744 1.63-2.906 2.182-2.186 1.022-4.538 1.85-6.641 3.037-.941.553-1.55 1.547-.747 2.513.996 1.188 2.961.718 4.289.497 1.826-.303 3.569-.911 5.23-1.684a21.094 21.094 0 0 0 8.495-7.456c.304-.442-.415-.856-.72-.414-1.854 2.872-4.427 5.191-7.443 6.793-1.439.746-2.989 1.353-4.566 1.712-.885.221-1.826.414-2.767.442-.858.055-1.079.166-1.494-.69-.526-.498-.471-.829.138-.995.194-.082.36-.165.553-.248 1.771-.829 3.57-1.629 5.341-2.458 1.384-.635 2.739-1.187 3.68-2.43 1.107-1.463 1.882-3.203 2.767-4.805 1.024-1.85 2.048-3.7 3.044-5.523.249-.497-.47-.911-.719-.441Zm12.646 6.047a121.176 121.176 0 0 0 21.417-8.257 117.819 117.819 0 0 0 9.962-5.605c2.905-1.823 5.977-3.673 8.052-6.462.304-.442-.415-.856-.719-.414-2.159 2.927-5.535 4.832-8.578 6.71-3.1 1.905-6.31 3.673-9.575 5.302a121.207 121.207 0 0 1-20.781 7.953c-.498.11-.277.911.222.773Z"/>
    <path fill="#000" d="M243.324 118.171c2.297-4.501 8.191-3.479 11.096-.276 3.487 3.866 3.653 9.527 4.04 14.442.831 10.742.997 21.567.333 32.309-.333 5.219-1.107 10.742-4.594 14.884-.332.414.249.994.581.58 3.127-3.756 4.206-8.505 4.649-13.255.581-6.075.581-12.233.526-18.336a232.877 232.877 0 0 0-.941-19.137c-.443-4.777-1.301-10.051-5.258-13.227-3.376-2.706-9.02-2.623-11.179 1.602-.221.469.498.883.747.414Zm-52.132 94.165c2.02.911 4.455 2.292 6.752 2.292 2.213-.028 3.846-1.85 5.34-3.231 4.289-3.977 8.578-7.953 12.867-11.902.388-.359-.193-.939-.581-.58-3.625 3.369-7.25 6.71-10.875 10.079-1.605 1.464-3.265 3.563-5.285 4.474-2.38 1.077-5.645-.856-7.775-1.823-.499-.248-.914.47-.443.691Z"/>
    <path fill="#000" d="M202.454 211.756c.913 1.712 2.933 1.022 3.957-.166 2.02-2.375 3.597-5.246 5.313-7.815.304-.441-.415-.856-.72-.414l-3.237 4.805c-.609.884-3.293 5.661-4.594 3.176-.249-.47-.968-.055-.719.414Zm-6.42-1.353c.83.442 1.854.884 2.767.442.471-.249.665-.635.886-1.077.387-.746.775-1.326 1.494-1.795.443-.304.028-1.022-.415-.718-.664.442-1.217.994-1.605 1.712-.277.525-.443 1.16-1.162 1.215-.526.055-1.107-.276-1.55-.497-.442-.221-.885.469-.415.718Z"/>
    <path fill="#fff" d="M190.362 52.614c-.969 1.96-1.937 5.247-2.242 6.324a61.487 61.487 0 0 0-1.992 9.969c-.304 2.65-.636 5.55-.36 9.389.139 1.822.332 4.694 1.411 8.256.72 2.43 1.771 5.938 4.622 9.527a23.976 23.976 0 0 0 7.609 6.269 25.427 25.427 0 0 0 5.119-.414c3.487-.663 6.199-1.961 8.025-3.01.249 1.408.581 2.899.996 4.446a60.853 60.853 0 0 0 2.961 8.45c1.134-.194 2.49-.525 3.929-1.188 4.566-2.126 6.752-6.047 7.527-7.677-.415-1.601-.747-3.341-1.052-5.136-1.051-6.71-.774-12.703-.11-17.563a7.353 7.353 0 0 0 2.684.387c2.269-.138 3.818-1.38 4.593-2.044.664-.552 3.68-3.23 3.57-7.207-.028-.939-.083-3.23-1.716-4.473-1.522-1.133-3.569-.718-5.064-.415-1.715.36-2.988 1.077-3.763 1.574.581-1.905 1.799-6.793 0-12.481-.387-1.215-2.961-8.947-10.543-12.289-10.293-4.584-22.662 2.21-26.204 9.306Z"/>
    <path fill="#9B9797" d="M221.63 52.78a61.899 61.899 0 0 1 0 10.714c-1.19 13.393-6.503 22.7-7.886 25.019-2.103 3.535-5.7 8.67-11.456 13.724 1.716-.221 3.68-.607 5.783-1.353 5.784-2.043 9.657-5.55 11.76-7.842a46.01 46.01 0 0 0 1.937 10.88 47.202 47.202 0 0 0 1.799 4.777c1.467-1.905 2.906-3.811 4.372-5.744a82.772 82.772 0 0 1-.775-5.66 93.022 93.022 0 0 1-.304-16.266c1.245.028 3.044-.082 4.953-.828 8.357-3.314 13.116-16.486 8.606-23.665-.194-.304-1.19-1.85-3.238-3.231-6.336-4.253-14.389-1.022-15.551-.525Z" opacity=".24"/>
    <path fill="#0A3871" d="M188.342 58.11a22.062 22.062 0 0 1-.526-10.024c.249-1.381 1.107-5.827 4.151-9.334 4.455-5.109 10.044-4.142 17.294-6.738 4.593-1.63 10.902-5.053 17.295-13.117-.582 2.983-1.163 5.993-1.744 8.975.996.276 4.345.994 7.776-.69 5.7-2.79 6.198-9.527 6.226-9.831a17.6 17.6 0 0 1 1.383 9.334 17.75 17.75 0 0 1-2.241 6.572c.332.359 2.103 2.181 4.151 1.905 2.49-.331 4.815-3.728 4.15-8.118a20.54 20.54 0 0 1 1.052 7.593 20.556 20.556 0 0 1-2.435 8.644c.221.193 1.632 1.463 3.625 1.215 1.743-.221 3.237-1.491 3.818-3.286-.138 1.85-.47 4.528-1.549 7.594-1.467 4.142-2.684 4.473-3.293 7.428-.969 4.64 1.522 6.213.858 10.355-.554 3.48-2.823 5.661-5.7 8.45-5.23 5.054-11.235 7.787-16.271 9.306.221-1.546.47-3.093.692-4.639.636.387 1.743.911 3.126.856 2.823-.11 4.594-2.623 5.535-3.976 1.079-1.52 2.878-4.115 1.909-6.904-.802-2.264-2.933-3.203-3.127-3.286-2.49-1.05-5.7-.11-7.775 2.43-1.163-4.556-2.297-9.085-3.459-13.642-3.93-2.485-7.831-4.943-11.761-7.428-1.937-.359-7.222-1.077-13.143 1.547-5.977 2.65-9.021 7.152-10.017 8.809Z"/>
    <path fill="#000" d="M187.927 58c-2.352 8.78-3.764 18.114-1.605 27.089 1.771 7.29 6.253 15.602 13.891 17.977.498.166.719-.635.221-.801-7.665-2.375-11.954-11.018-13.531-18.308-1.854-8.56-.443-17.397 1.798-25.737.166-.497-.636-.718-.774-.22Z"/>
    <path fill="#000" d="M200.821 102.928c12.757-1.298 23.41-10.494 26.399-22.975.11-.525-.664-.746-.803-.221-2.905 12.067-13.171 21.097-25.596 22.367-.525.056-.553.884 0 .829Z"/>
    <path fill="#000" d="M226.5 80.174c5.701 3.479 11.262-3.811 11.622-8.92.194-2.706-1.051-4.777-3.735-5.55a6.973 6.973 0 0 0-6.974 1.905c-.359.387.222.967.582.58a6.14 6.14 0 0 1 5.81-1.795c1.107.248 2.325.856 2.961 1.85.692 1.077.609 2.568.443 3.756-.664 4.28-5.424 10.41-10.294 7.428-.442-.249-.885.47-.415.746Z"/>
    <path fill="#000" d="M226.445 80.118a60.902 60.902 0 0 0 1.134 22.92c.139.525.941.304.803-.221a59.738 59.738 0 0 1-1.135-22.478c.056-.525-.747-.745-.802-.22Zm-14.306 18.916a61.533 61.533 0 0 0 4.012 13.006c.222.498.941.056.72-.414a59.204 59.204 0 0 1-3.93-12.813c-.11-.525-.885-.304-.802.221Z"/>
    <path fill="#000" d="M216.732 112.151c5.341-.856 9.851-4.529 11.871-9.527.194-.497-.608-.718-.802-.221-1.909 4.75-6.254 8.146-11.29 8.947-.526.083-.304.884.221.801Zm-3.929-12.15c1.135.055 1.909-.719 2.767-1.381a34.838 34.838 0 0 0 3.21-2.817c1.854-1.85 3.348-3.976 4.317-6.406.193-.498-.609-.718-.803-.221-.858 2.154-2.186 4.059-3.791 5.716-.719.773-1.494 1.463-2.296 2.154-.886.745-2.159 2.181-3.404 2.126-.526-.028-.526.8 0 .829Z"/>
    <path fill="#000" d="M212.858 99.559c2.352-1.519 4.538-3.258 6.586-5.164.387-.359-.194-.966-.581-.58a45.286 45.286 0 0 1-6.42 5.054c-.47.248-.027.966.415.69ZM196.588 59.6a113.7 113.7 0 0 0-2.629 21.402c0 .414.553.552.775.22 1.079-1.711 2.158-3.451 3.237-5.163.277-.442-.442-.884-.719-.414-1.079 1.712-2.158 3.452-3.238 5.164.249.082.526.138.775.22a113.67 113.67 0 0 1 2.601-21.18c.111-.552-.692-.773-.802-.248Zm1.107 31.785c-.665-1.243-1.107-2.568-1.218-3.977-.083-.994.138-5.025 2.02-3.424.996.856.858 2.734.885 3.977 0 .58 0 1.187-.055 1.767a8.617 8.617 0 0 1-.166 1.215c-.719.497-1.273.47-1.632-.055-.36-.387-.969.193-.582.58 1.19 1.215 2.74 1.27 3.072-.635.249-1.353.249-2.79.138-4.142-.083-1.078-.083-2.624-.885-3.452-1.19-1.215-2.878-.083-3.348 1.215-.858 2.32-.028 5.246 1.079 7.345.221.47.941.055.692-.414Zm5.727-24.853c.831 3.894 5.95 4.197 7.472.608.193-.498-.609-.719-.803-.222-1.245 2.928-5.23 2.375-5.866-.607-.111-.497-.913-.304-.803.22Zm-1.632-9.582c1.051-2.347 3.763-3.48 6.254-2.955 2.573.552 4.538 2.54 5.811 4.722.276.47.996.055.719-.414-1.467-2.513-3.791-4.75-6.779-5.192-2.685-.386-5.562.884-6.725 3.397-.221.525.499.939.72.442Zm-16.215.911c.747-1.546 2.047-3.23 3.957-3.203 1.826.027 3.154 1.63 4.067 3.037.277.442.996.028.72-.414-1.052-1.684-2.629-3.424-4.787-3.452-2.214-.027-3.764 1.795-4.649 3.618-.249.47.47.884.692.414Zm4.897 12.509c.489 0 .886-1.817.886-4.059s-.397-4.06-.886-4.06-.885 1.818-.885 4.06c0 2.242.396 4.06.885 4.06Z"/>
    <path fill="#fff" d="M193.018 114.056a83.592 83.592 0 0 0-.249 4.06c-.249 5.578-.028 9.803.055 10.935.222 3.673.72 8.477 1.882 14.056a140.91 140.91 0 0 1-4.898 5.357c-4.04 4.225-6.115 6.379-9.436 8.615-3.708 2.486-6.281 3.259-7.665 3.618-1.743.414-3.403.801-5.423.359-3.293-.746-5.258-3.176-5.977-4.115-1.826-2.319-2.241-4.584-2.989-9.002-.553-3.231-.664-5.688-.83-10.438-.083-2.265-.193-5.026-.138-8.726.055-4.17.277-9.113.885-14.636.277-2.485.664-5.55 1.273-9.03a74.091 74.091 0 0 0-1.494-2.016c-.553-.718-1.079-1.408-1.633-2.098-1.411 1.187-2.794 2.402-4.206 3.59-.359.138-.996.359-1.771.276-1.466-.138-2.324-1.16-2.628-1.491-1.356-1.547-1.163-3.508-1.107-3.894 1.909-2.071 3.818-4.115 5.755-6.186a18.58 18.58 0 0 1 .665-4.446c.359-1.27.802-2.32 1.217-3.203.36-.718.858-1.519 1.494-2.32a15.814 15.814 0 0 1 3.349-3.258c-.803.359-.997.359-1.052.304-.138-.221 1.162-1.85 2.989-2.016 1.023-.11 1.826.276 2.379.525a6.027 6.027 0 0 1 1.799 1.325 699.359 699.359 0 0 1 5.147-4.363c.608.359 1.217.773 1.826 1.187a52.872 52.872 0 0 1 3.819 2.872 12.658 12.658 0 0 1-1.605 1.685c-1.107.966-2.214 1.546-3.072 1.933.526.165 1.467.552 1.937 1.463.471.884.277 1.85 0 3.066a11.33 11.33 0 0 1-.636 1.933c.11 1.16.166 2.733-.166 4.5-.526 2.9-1.744 5.054-2.574 6.297a92.668 92.668 0 0 0 0 4.832c.222 8.533 1.467 13.531 2.269 19.827.471 3.59.941 8.92.803 15.63a28.196 28.196 0 0 0 2.573-1.933c2.601-2.181 4.262-4.363 6.448-7.566 2.158-3.121 3.569-5.44 5.479-8.533 1.189-2.016 3.099-5.081 5.506-8.975Z"/>
    <path fill="#9B9797" d="M167.865 88.844a268.454 268.454 0 0 0-1.743 3.894 121.944 121.944 0 0 0-4.206 11.432c-.249 5.744-.388 10.549-.498 14.028-.139 5.275.193 11.571.802 24.163.249 5.192.47 8.34 2.906 10.632 2.545 2.374 6.087 2.43 8.079 2.43 10.626-.028 18.568-9.058 20.754-11.681-2.961 5.026-6.337 8.312-8.634 10.245-2.601 2.181-5.949 4.915-11.151 6.268-4.4 1.16-6.392.911-6.918.801-3.791-.911-5.894-4.059-6.641-5.136-1.799-2.679-2.38-5.468-2.712-11.46-.332-6.158.028-7.788.139-16.265.083-8.091-.222-10.383.387-15.989.36-3.286.803-5.992 1.162-7.815-1.079-1.132-2.158-2.264-3.237-3.369-.913.801-1.854 1.574-2.795 2.375a93.75 93.75 0 0 1-1.854 1.547 4.59 4.59 0 0 1-2.214-.332c-2.213-.939-3.597-3.673-2.905-4.611.443-.636 1.605-.139 3.21-.139 2.767.028 4.621-1.38 8.301-4.031 2.601-1.906 5.59-4.032 9.768-6.987Z" opacity=".24"/>
    <path fill="#000" d="M192.658 113.835c-6.392 8.809-11.123 18.916-19.203 26.427-.388.359.193.939.581.58 8.135-7.566 12.894-17.728 19.342-26.592.332-.415-.388-.829-.72-.415Zm-23.797 47.856c10.958-.718 18.817-9.886 25.402-17.673.332-.414-.249-.994-.581-.58-6.392 7.622-14.14 16.734-24.793 17.452-.554 0-.554.829-.028.801Zm-5.202-77.79a4.965 4.965 0 0 0 3.597 4.667c.526.138.747-.662.222-.8a4.136 4.136 0 0 1-2.989-3.867c-.028-.524-.858-.524-.83 0Z"/>
    <path fill="#000" d="M164.517 83.653c.276-2.403 4.565-.663 5.728-.055 1.134.58 2.269 1.16 2.518 2.54.193 1.05-.139 2.154-.415 3.176-.139.525.664.746.802.22.388-1.38.803-2.954.222-4.307-.554-1.38-2.076-2.016-3.321-2.623-1.273-.608-2.656-1.05-4.095-.884-.581.083-1.329.22-1.799.607-.498.387-.387.663-.47 1.353-.056.498.774.498.83-.027Z"/>
    <path fill="#000" d="M172.071 89.148c-.083 2.099.387 4.142-.111 6.241-.47 1.933-1.411 3.728-2.352 5.468-.249.469.471.883.72.414.968-1.823 1.937-3.673 2.435-5.661.526-2.154.055-4.28.138-6.462.028-.552-.802-.552-.83 0Z"/>
    <path fill="#000" d="M169.608 100.884c-.636 14.553 3.542 28.802 2.878 43.355-.028.525.802.525.83 0 .664-14.553-3.514-28.802-2.878-43.355.028-.524-.802-.524-.83 0Zm-13.586.304c.83 1.16 1.715 2.264 2.711 3.286.36.387.941-.193.582-.58a27.572 27.572 0 0 1-2.574-3.12c-.332-.442-1.051-.028-.719.414Z"/>
    <path fill="#000" d="M159.204 104.253a154.612 154.612 0 0 0-2.325 27.2c.028 4.529.25 9.085.692 13.587.36 3.838.803 7.87 2.823 11.239 1.826 3.065 5.036 5.384 8.689 5.302.525-.028.525-.856 0-.829-5.12.138-8.413-4.418-9.602-8.892-1.329-4.915-1.439-10.272-1.633-15.326a151.461 151.461 0 0 1 2.186-32.032c.055-.553-.747-.773-.83-.249Zm-5.23-12.399a110.589 110.589 0 0 0-7.499 6.876c-.387.387.221.967.581.58a117.718 117.718 0 0 1 7.499-6.876c.415-.331-.166-.911-.581-.58Z"/>
    <path fill="#000" d="M146.226 99.476c-.415 3.203 2.02 5.909 5.258 5.882.525 0 .525-.829 0-.829-2.795.028-4.788-2.319-4.428-5.053.083-.525-.747-.525-.83 0Z"/>
    <path fill="#000" d="M147.001 99.283c2.905.082 4.925 2.678 4.317 5.495-.111.525.691.746.802.221.747-3.397-1.633-6.434-5.119-6.545-.526 0-.526.829 0 .829Z"/>
    <path fill="#000" d="M152.452 104.861c3.155-2.872 6.364-5.717 9.436-8.671 1.411-1.353 2.767-2.734 4.04-4.225.692-.801 2.435-2.375 2.463-3.48 0-.138-.083-.303-.194-.359a.47.47 0 0 0-.138-.055c-.166-.083-.388-.083-.498.055a.364.364 0 0 0-.083.11c-.332.415.249.995.581.58.027-.027.055-.055.083-.11a3.056 3.056 0 0 1-.498.055c-.056-.248-.139-.248-.249.028-.139.194-.277.387-.443.58-.332.414-.637.829-.996 1.243-.554.69-1.163 1.353-1.744 2.016-1.217 1.325-2.49 2.568-3.791 3.783-2.822 2.65-5.7 5.219-8.55 7.842-.415.387.194.967.581.608Zm.36-11.461.581-3.976c.138-.994.249-2.098.802-2.982 1.273-2.043 3.072-.58 4.04.8.415.58.803 1.216 1.218 1.796.221.331 1.3 1.519 1.162 1.933.138-.11.277-.194.388-.304h-.139c-.526-.028-.526.8 0 .828h.139c.193 0 .359-.138.387-.303.194-.69-.277-1.105-.637-1.657-.691-1.022-1.355-2.071-2.075-3.066-.747-1.021-1.715-2.015-3.099-1.877-1.328.138-2.131 1.16-2.546 2.347-.692 1.96-.747 4.197-1.051 6.24-.056.525.747.746.83.222Z"/>
    <path fill="#000" d="M154.112 90.28c.748 1.464 1.993 2.955 3.764 3.066 1.466.11 2.85-.718 3.237-2.154.139-.525-.664-.746-.802-.221-.36 1.325-1.827 1.822-3.044 1.408-1.162-.414-1.909-1.436-2.435-2.485-.249-.497-.969-.083-.72.386Z"/>
    <path fill="#000" d="M155.136 84.896c.139-1.353 1.688-1.713 2.74-1.353 1.107.358 1.964 1.353 2.739 2.153.609.636 1.799 1.52 1.965 2.403.221 1.187-1.273 1.988-2.269 2.292-.498.138-.305.939.221.8 1.218-.358 2.989-1.435 3.182-2.871.083-.58-.276-.884-.664-1.298-.775-.829-1.522-1.63-2.324-2.43-1.079-1.105-2.463-2.292-4.123-2.016-1.245.193-2.159 1.022-2.297 2.292-.055.552.775.552.83.028Z"/>
    <path fill="#000" d="M156.63 82.852c.388-.442.582-1.022.941-1.464.886-1.104 2.269-.082 3.182.58 1.771 1.243 3.653 3.507 2.048 5.661-.304.442.415.856.72.415 1.715-2.32.027-4.999-1.937-6.49-.914-.69-2.297-1.933-3.542-1.574-1.107.304-1.301 1.574-1.993 2.32-.359.359.222.939.581.552Z"/>
    <path fill="#000" d="M159.425 80.34c.969-1.188 2.242-2.43 3.736-1.188.996.8 1.632 1.933 1.992 3.12.166.497.941.304.803-.22-.471-1.602-1.55-3.453-3.155-4.115-1.632-.663-2.988.635-3.957 1.822-.332.387.249.994.581.58Z"/>
    <path fill="#000" d="M165.541 80.45a720.733 720.733 0 0 1 5.146-4.364c.415-.358-.193-.938-.581-.58a696.909 696.909 0 0 1-5.147 4.364c-.415.359.194.939.582.58Zm6.115 3.534c1.633-1.187 3.21-2.457 4.676-3.838.388-.36-.193-.939-.581-.58a47.931 47.931 0 0 1-4.51 3.7c-.443.304-.028 1.022.415.718Z"/>
    <path stroke="#000" stroke-miterlimit="10" stroke-width="3" d="M184.08 81.913c9.231 0 16.714-7.467 16.714-16.679 0-9.211-7.483-16.679-16.714-16.679-9.23 0-16.713 7.468-16.713 16.68 0 9.21 7.483 16.678 16.713 16.678Z"/>
    <path fill="#000" d="M173.953 67.278a305.929 305.929 0 0 1 18.844-11.101c.47-.249.055-.967-.415-.718a280.413 280.413 0 0 0-18.844 11.1c-.443.304-.028 1.022.415.719Zm.691 7.235a426.1 426.1 0 0 1 15.413-10.743c.443-.303.028-1.021-.415-.718a495.435 495.435 0 0 0-15.413 10.742c-.442.304-.027 1.022.415.719Z"/>
  </g>
  <defs>
    <clipPath id="a">
      <path fill="#fff" d="M0 0h336v304H0z"/>
    </clipPath>
  </defs>
</svg>
